<svg width="246" height="46" viewBox="0 0 246 46" fill="none" xmlns="http://www.w3.org/2000/svg">
<path d="M92.1468 22.5577L81.4659 11.2157L91.3653 0.442305H94.1657L83.4523 10.331L95.0775 22.5577H92.1468ZM78.0792 22.5577V0.442305H80.2936V22.5577H78.0792Z" fill="white"/>
<path d="M99.958 0.442305H104.322C106.623 0.442305 108.403 0.91621 109.662 1.86401C110.943 2.79075 111.583 4.09662 111.583 5.7816C111.583 7.08746 111.182 8.17216 110.378 9.03571C109.597 9.89927 108.457 10.4785 106.959 10.7734V10.9629C108.392 11.2367 109.564 11.8897 110.476 12.9217C111.388 13.9538 112.072 15.228 112.528 16.7445C112.94 18.1346 113.342 19.2193 113.733 19.9986C114.145 20.7569 114.59 21.3045 115.068 21.6415C115.567 21.9785 116.153 22.2207 116.826 22.3681V22.5577H115.491C114.536 22.5577 113.743 22.3892 113.114 22.0522C112.506 21.7152 111.985 21.1465 111.551 20.3461C111.117 19.5458 110.704 18.44 110.313 17.0288C109.684 14.8594 108.848 13.3219 107.806 12.4162C106.764 11.5105 105.494 11.0577 103.996 11.0577H103.801V10.489H103.996C107.491 10.489 109.239 8.9304 109.239 5.81318C109.239 2.73809 107.6 1.20055 104.322 1.20055H102.172V22.5577H99.958V0.442305Z" fill="white"/>
<path d="M118.45 22.5577L127.21 0.442305H129.229L137.988 22.5577H135.611L131.573 12.1951H124.181L120.827 22.5577H118.45ZM127.438 2.08517L124.409 11.4368H131.28L127.633 2.08517H127.438Z" fill="white"/>
<path d="M141.284 21.8626L141.479 19.967H141.675C142.521 20.6832 143.477 21.2413 144.54 21.6415C145.604 22.0417 146.657 22.2418 147.699 22.2418C149.175 22.2418 150.369 21.8521 151.281 21.0728C152.193 20.2724 152.649 19.2088 152.649 17.8819C152.649 17.1447 152.475 16.4602 152.128 15.8283C151.802 15.1964 151.249 14.554 150.467 13.9011C149.707 13.2482 148.654 12.5426 147.308 11.7843C146.375 11.2578 145.485 10.7102 144.638 10.1415C143.791 9.55175 143.097 8.87776 142.554 8.11951C142.011 7.34021 141.74 6.41346 141.74 5.33929C141.74 3.73856 142.337 2.45376 143.531 1.4849C144.725 0.494971 146.299 0 148.253 0C149.121 0 150.055 0.0947826 151.053 0.284343C152.052 0.452842 152.822 0.673991 153.365 0.947801L153.202 2.71703H153.007C151.77 1.41117 150.185 0.758243 148.253 0.758243C146.863 0.758243 145.745 1.10577 144.899 1.80083C144.052 2.47482 143.629 3.39103 143.629 4.54945C143.629 5.413 143.857 6.16072 144.312 6.79259C144.79 7.4034 145.398 7.96154 146.136 8.46704C146.874 8.95147 147.667 9.42537 148.513 9.88874C149.49 10.4364 150.434 11.0156 151.346 11.6264C152.28 12.2372 153.04 12.9744 153.626 13.8379C154.234 14.6804 154.537 15.7441 154.537 17.0288C154.537 18.2083 154.255 19.2509 153.691 20.1566C153.126 21.0412 152.323 21.7363 151.281 22.2418C150.261 22.7473 149.067 23 147.699 23C146.831 23 145.81 22.8947 144.638 22.6841C143.466 22.4734 142.348 22.1996 141.284 21.8626Z" fill="white"/>
<path d="M159.323 11.5C159.323 9.87821 159.616 8.37225 160.203 6.98214C160.81 5.57097 161.646 4.34937 162.71 3.31731C163.795 2.2642 165.055 1.4533 166.487 0.884617C167.942 0.294873 169.505 0 171.177 0C172.848 0 174.4 0.294873 175.833 0.884617C177.288 1.4533 178.547 2.2642 179.611 3.31731C180.696 4.34937 181.532 5.57097 182.118 6.98214C182.726 8.37225 183.03 9.87821 183.03 11.5C183.03 13.1218 182.726 14.6383 182.118 16.0495C181.532 17.4396 180.696 18.6612 179.611 19.7143C178.547 20.7463 177.288 21.5572 175.833 22.147C174.4 22.7157 172.848 23 171.177 23C169.505 23 167.942 22.7157 166.487 22.147C165.055 21.5572 163.795 20.7463 162.71 19.7143C161.646 18.6612 160.81 17.4396 160.203 16.0495C159.616 14.6383 159.323 13.1218 159.323 11.5ZM161.798 11.5C161.798 13.6484 162.189 15.5334 162.97 17.1552C163.752 18.756 164.848 20.0092 166.259 20.9148C167.671 21.7995 169.31 22.2418 171.177 22.2418C173.044 22.2418 174.683 21.7995 176.094 20.9148C177.505 20.0092 178.601 18.7454 179.383 17.1236C180.164 15.5018 180.555 13.6273 180.555 11.5C180.555 9.37272 180.164 7.5087 179.383 5.90797C178.601 4.28617 177.505 3.02244 176.094 2.11676C174.683 1.21108 173.044 0.758243 171.177 0.758243C169.31 0.758243 167.671 1.21108 166.259 2.11676C164.87 3.00138 163.774 4.25459 162.97 5.87638C162.189 7.47711 161.798 9.35166 161.798 11.5Z" fill="white"/>
<path d="M194.083 22.5577V1.07418C193.757 1.07418 193.084 1.13736 192.064 1.26373L185.681 2.05358V0.442305H204.698V2.05358L198.316 1.26373C197.296 1.13736 196.623 1.07418 196.297 1.07418V22.5577H194.083Z" fill="white"/>
<path d="M214.873 22.5577V13.206L206.797 0.442305H209.272L216.533 12.0055H216.729L222.525 0.442305H225L217.217 12.7637V22.5577H214.873Z" fill="white"/>
<path d="M15.0676 22.5577L4.38664 11.2157L14.286 0.442305H17.0865L6.37303 10.331L17.9983 22.5577H15.0676ZM1 22.5577V0.442305H3.21434V22.5577H1Z" fill="#BF9D6E"/>
<path fill-rule="evenodd" clip-rule="evenodd" d="M50.4817 22.5577V0.442305H57.6457C60.164 0.442305 62.3566 0.905684 64.2236 1.83242C66.0906 2.75916 67.5451 4.05449 68.5872 5.71841C69.6292 7.36126 70.1502 9.28847 70.1502 11.5C70.1502 13.7115 69.6292 15.6493 68.5872 17.3132C67.5451 18.956 66.0906 20.2408 64.2236 21.1676C62.3566 22.0943 60.164 22.5577 57.6457 22.5577H50.4817ZM52.696 1.20055H57.6457C60.7936 1.20055 63.2467 2.10623 65.0052 3.91759C66.7853 5.72894 67.6754 8.25642 67.6754 11.5C67.6754 14.7436 66.7853 17.2711 65.0052 19.0824C63.2467 20.8938 60.7936 21.7994 57.6457 21.7994H52.696V1.20055Z" fill="#BF9D6E"/>
<path fill-rule="evenodd" clip-rule="evenodd" d="M20.826 6.98214C20.2399 8.37225 19.9468 9.87821 19.9468 11.5C19.9468 13.1218 20.2399 14.6383 20.826 16.0495C21.4339 17.4396 22.2697 18.6612 23.3334 19.7143C24.4189 20.7463 25.678 21.5572 27.1108 22.147C28.5653 22.7157 30.1284 23 31.8 23C33.4716 23 35.0238 22.7157 36.4566 22.147C37.9112 21.5572 39.1703 20.7463 40.234 19.7143C41.3195 18.6612 42.1553 17.4396 42.7414 16.0495C43.3493 14.6383 43.6532 13.1218 43.6532 11.5C43.6532 9.87821 43.3493 8.37225 42.7414 6.98214C42.1553 5.57097 41.3195 4.34937 40.234 3.31731C39.1703 2.2642 37.9112 1.4533 36.4566 0.884617C35.0238 0.294873 33.4716 0 31.8 0C30.1284 0 28.5653 0.294873 27.1108 0.884617C25.678 1.4533 24.4189 2.2642 23.3334 3.31731C22.2697 4.34937 21.4339 5.57097 20.826 6.98214ZM36.7171 20.9148C35.306 21.7995 33.667 22.2418 31.8 22.2418C30.3426 22.2418 29.024 21.9722 27.8444 21.4331C27.9536 20.5635 27.9265 19.6298 27.7714 18.6021C27.7301 18.2975 27.6764 18.0369 27.664 18.0248C27.6516 18.0128 27.3334 17.9286 26.9657 17.8364L26.288 17.668L26.3665 18.0569C26.4774 18.6016 26.5896 20.1307 26.5897 20.7185C25.3191 19.8311 24.3205 18.6433 23.5939 17.1552C23.5198 17.0014 23.4492 16.8452 23.3821 16.6866C24.3717 16.7166 25.1146 16.8425 26.7343 17.2354C29.6929 17.957 31.4036 17.973 33.4407 17.3035C34.449 16.9748 35.3911 16.4055 36.1266 15.6919C37.3869 14.4692 38.1555 12.7694 38.3125 10.8691C38.3787 10.0432 38.201 8.02672 38.0522 7.90645C38.0233 7.88641 37.7216 7.80222 37.3869 7.72605C37.0481 7.64587 36.7589 7.58973 36.7465 7.60176C36.7341 7.61379 36.7712 7.91447 36.8332 8.26325C37.2216 10.5404 36.887 12.3404 35.7589 13.9721C35.0192 15.0425 33.6639 15.9084 32.1681 16.2692C30.7218 16.614 29.1351 16.5579 27.288 16.0888C25.2449 15.5754 24.0272 15.3675 22.9195 15.3648C22.5876 14.1884 22.4216 12.9001 22.4216 11.5C22.4216 9.35166 22.8124 7.47711 23.5939 5.87638C24.3972 4.25459 25.4935 3.00138 26.8829 2.11676C28.294 1.21108 29.933 0.758243 31.8 0.758243C33.3211 0.758243 34.6908 1.05881 35.9093 1.65995C35.8076 2.46012 35.8176 3.3008 35.941 4.17389C35.9989 4.55875 36.0526 4.91555 36.065 4.95965C36.0857 5.03582 37.3542 5.40064 37.4162 5.34853C37.4327 5.33249 37.3914 5.01979 37.3253 4.65898C37.2172 4.05442 37.1703 3.13422 37.1976 2.44799C38.3795 3.32185 39.3156 4.47517 40.0061 5.90797C40.0788 6.05682 40.1481 6.20795 40.214 6.36135C39.4456 6.33826 38.5541 6.19784 37.4493 5.91823C34.8543 5.26075 33.2882 5.12043 31.7015 5.39305C29.809 5.72178 28.0528 6.67192 27.1148 7.87863C25.9083 9.43412 25.3174 11.3143 25.4248 13.2627C25.4661 13.9843 25.6273 15.1028 25.7016 15.1429C25.8173 15.2071 26.9785 15.4757 26.995 15.4436C26.9991 15.4236 26.9578 15.0547 26.8958 14.6258C26.7719 13.7598 26.7058 12.934 26.7595 12.8819C26.776 12.8658 27.371 13.411 28.0776 14.0966C29.5569 15.5318 29.6065 15.5639 29.9164 15.2712C29.9949 15.195 30.0404 15.0868 30.0363 14.9866C30.028 14.8342 29.933 14.734 28.4537 13.2747L26.8793 11.7233L26.9372 11.4426C26.9661 11.2863 27.0405 11.0137 27.0983 10.8373L27.2058 10.5246L29.4702 12.7215C31.8089 14.9906 31.966 15.1269 32.2056 15.0547C32.3957 14.9986 32.5693 14.7982 32.5858 14.6137L32.6064 14.4414L27.6603 9.5624L27.8214 9.31786C27.9123 9.18155 28.0487 8.98511 28.1355 8.87686L28.2801 8.68042L30.9205 11.2422C32.8007 13.0663 33.6064 13.824 33.7139 13.8641C34.0486 13.9803 34.4039 13.6355 34.2841 13.3108C34.2428 13.2066 33.4618 12.4248 31.5817 10.6007L28.9412 8.03898L29.1479 7.89466C29.2553 7.81448 29.4619 7.67817 29.5983 7.59398L29.8503 7.43764L34.8791 12.2364L35.0568 12.2164C35.2469 12.2003 35.4535 12.0319 35.5113 11.8475C35.5857 11.615 35.4452 11.4627 33.1064 9.19357L30.842 6.99664L31.1685 6.8884C31.3461 6.83629 31.6271 6.76412 31.7883 6.73606L32.0775 6.67994L33.6767 8.20736C35.1808 9.64258 35.2841 9.73479 35.4411 9.74281C35.6849 9.75483 35.8832 9.53835 35.8543 9.30182C35.8295 9.11741 35.7841 9.06528 34.5362 7.85457C33.8213 7.16101 33.2552 6.57971 33.2717 6.56367C33.3296 6.50754 34.6808 6.61579 35.3626 6.73205C35.7221 6.79219 36.3419 6.92849 36.7468 7.03273C38.2914 7.4322 39.5547 7.645 40.6802 7.67528C41.0123 8.8383 41.1784 10.1132 41.1784 11.5C41.1784 13.6273 40.7876 15.5018 40.0061 17.1236C39.2246 18.7454 38.1282 20.0092 36.7171 20.9148Z" fill="#BF9D6E"/>
<path d="M5.088 43.072C4.256 43.072 3.504 42.888 2.832 42.52C2.168 42.152 1.644 41.644 1.26 40.996C0.884 40.34 0.696 39.608 0.696 38.8C0.696 37.992 0.884 37.264 1.26 36.616C1.644 35.96 2.172 35.448 2.844 35.08C3.516 34.712 4.268 34.528 5.1 34.528C5.724 34.528 6.3 34.632 6.828 34.84C7.356 35.048 7.804 35.352 8.172 35.752L7.608 36.316C6.952 35.652 6.124 35.32 5.124 35.32C4.46 35.32 3.856 35.472 3.312 35.776C2.768 36.08 2.34 36.496 2.028 37.024C1.724 37.552 1.572 38.144 1.572 38.8C1.572 39.456 1.724 40.048 2.028 40.576C2.34 41.104 2.768 41.52 3.312 41.824C3.856 42.128 4.46 42.28 5.124 42.28C6.132 42.28 6.96 41.944 7.608 41.272L8.172 41.836C7.804 42.236 7.352 42.544 6.816 42.76C6.288 42.968 5.712 43.072 5.088 43.072ZM17.6738 36.64C18.4658 36.64 19.0858 36.868 19.5338 37.324C19.9898 37.78 20.2178 38.452 20.2178 39.34V43H19.3658V39.424C19.3658 38.768 19.2058 38.268 18.8858 37.924C18.5738 37.58 18.1298 37.408 17.5538 37.408C16.8978 37.408 16.3818 37.612 16.0058 38.02C15.6298 38.42 15.4418 38.976 15.4418 39.688V43H14.5898V39.424C14.5898 38.768 14.4298 38.268 14.1098 37.924C13.7978 37.58 13.3498 37.408 12.7658 37.408C12.1178 37.408 11.6018 37.612 11.2178 38.02C10.8418 38.42 10.6538 38.976 10.6538 39.688V43H9.80184V36.688H10.6178V37.84C10.8418 37.456 11.1538 37.16 11.5538 36.952C11.9538 36.744 12.4138 36.64 12.9338 36.64C13.4618 36.64 13.9178 36.752 14.3018 36.976C14.6938 37.2 14.9858 37.532 15.1778 37.972C15.4098 37.556 15.7418 37.232 16.1738 37C16.6138 36.76 17.1138 36.64 17.6738 36.64ZM28.1104 36.688V42.232C28.1104 43.304 27.8664 44.096 27.3784 44.608C26.8904 45.128 26.1544 45.388 25.1704 45.388C24.6184 45.388 24.0944 45.3 23.5984 45.124C23.1104 44.956 22.7144 44.72 22.4104 44.416L22.8424 43.768C23.1144 44.04 23.4504 44.252 23.8504 44.404C24.2504 44.556 24.6784 44.632 25.1344 44.632C25.8624 44.632 26.3984 44.444 26.7424 44.068C27.0864 43.7 27.2584 43.124 27.2584 42.34V41.608C27.0344 41.976 26.7264 42.26 26.3344 42.46C25.9504 42.66 25.5144 42.76 25.0264 42.76C24.2024 42.76 23.5504 42.532 23.0704 42.076C22.5984 41.612 22.3624 40.936 22.3624 40.048V36.688H23.2144V39.964C23.2144 40.628 23.3784 41.132 23.7064 41.476C24.0344 41.82 24.5024 41.992 25.1104 41.992C25.7744 41.992 26.2984 41.792 26.6824 41.392C27.0664 40.984 27.2584 40.42 27.2584 39.7V36.688H28.1104ZM36.3526 36.688V42.232C36.3526 43.304 36.0886 44.096 35.5606 44.608C35.0406 45.128 34.2526 45.388 33.1966 45.388C32.6126 45.388 32.0566 45.3 31.5286 45.124C31.0086 44.956 30.5846 44.72 30.2566 44.416L30.6886 43.768C30.9926 44.04 31.3606 44.252 31.7926 44.404C32.2326 44.556 32.6926 44.632 33.1726 44.632C33.9726 44.632 34.5606 44.444 34.9366 44.068C35.3126 43.7 35.5006 43.124 35.5006 42.34V41.536C35.2366 41.936 34.8886 42.24 34.4566 42.448C34.0326 42.656 33.5606 42.76 33.0406 42.76C32.4486 42.76 31.9086 42.632 31.4206 42.376C30.9406 42.112 30.5606 41.748 30.2806 41.284C30.0086 40.812 29.8726 40.28 29.8726 39.688C29.8726 39.096 30.0086 38.568 30.2806 38.104C30.5606 37.64 30.9406 37.28 31.4206 37.024C31.9006 36.768 32.4406 36.64 33.0406 36.64C33.5766 36.64 34.0606 36.748 34.4926 36.964C34.9246 37.18 35.2726 37.492 35.5366 37.9V36.688H36.3526ZM33.1246 42.004C33.5806 42.004 33.9926 41.908 34.3606 41.716C34.7286 41.516 35.0126 41.24 35.2126 40.888C35.4206 40.536 35.5246 40.136 35.5246 39.688C35.5246 39.24 35.4206 38.844 35.2126 38.5C35.0126 38.148 34.7286 37.876 34.3606 37.684C34.0006 37.484 33.5886 37.384 33.1246 37.384C32.6686 37.384 32.2566 37.48 31.8886 37.672C31.5286 37.864 31.2446 38.136 31.0366 38.488C30.8366 38.84 30.7366 39.24 30.7366 39.688C30.7366 40.136 30.8366 40.536 31.0366 40.888C31.2446 41.24 31.5286 41.516 31.8886 41.716C32.2566 41.908 32.6686 42.004 33.1246 42.004ZM44.3383 36.688V43H43.5223V41.848C43.2983 42.232 42.9903 42.532 42.5983 42.748C42.2063 42.956 41.7583 43.06 41.2543 43.06C40.4223 43.06 39.7663 42.832 39.2863 42.376C38.8143 41.912 38.5783 41.236 38.5783 40.348V36.688H39.4303V40.264C39.4303 40.928 39.5943 41.432 39.9223 41.776C40.2503 42.12 40.7223 42.292 41.3383 42.292C42.0023 42.292 42.5263 42.092 42.9103 41.692C43.2943 41.284 43.4863 40.72 43.4863 40V36.688H44.3383ZM51.6108 36.688V43H50.8308V40.912H48.8508H48.6108L47.1468 43H46.2228L47.7948 40.792C47.3068 40.656 46.9308 40.424 46.6668 40.096C46.4028 39.768 46.2708 39.352 46.2708 38.848C46.2708 38.144 46.5108 37.608 46.9908 37.24C47.4708 36.872 48.1268 36.688 48.9588 36.688H51.6108ZM47.1348 38.872C47.1348 39.808 47.7308 40.276 48.9228 40.276H50.8308V37.444H48.9828C47.7508 37.444 47.1348 37.92 47.1348 38.872ZM59.4728 40.192H58.0328V43H57.1808V36.688H58.0328V39.46H59.4848L61.7048 36.688H62.6288L60.1448 39.748L62.8088 43H61.8008L59.4728 40.192ZM67.0574 36.64C67.6734 36.64 68.2214 36.776 68.7014 37.048C69.1814 37.32 69.5534 37.7 69.8174 38.188C70.0894 38.676 70.2254 39.232 70.2254 39.856C70.2254 40.48 70.0934 41.036 69.8294 41.524C69.5654 42.004 69.1974 42.38 68.7254 42.652C68.2614 42.924 67.7294 43.06 67.1294 43.06C66.6014 43.06 66.1294 42.956 65.7134 42.748C65.3054 42.532 64.9734 42.224 64.7174 41.824V45.328H63.8654V39.868C63.8654 39.236 63.9974 38.676 64.2614 38.188C64.5334 37.7 64.9094 37.32 65.3894 37.048C65.8774 36.776 66.4334 36.64 67.0574 36.64ZM67.0334 42.316C67.4814 42.316 67.8854 42.212 68.2454 42.004C68.6054 41.796 68.8854 41.504 69.0854 41.128C69.2854 40.752 69.3854 40.328 69.3854 39.856C69.3854 39.384 69.2854 38.96 69.0854 38.584C68.8854 38.208 68.6054 37.916 68.2454 37.708C67.8854 37.492 67.4814 37.384 67.0334 37.384C66.5854 37.384 66.1814 37.488 65.8214 37.696C65.4694 37.904 65.1934 38.196 64.9934 38.572C64.8014 38.94 64.7054 39.364 64.7054 39.844C64.7054 40.324 64.8014 40.752 64.9934 41.128C65.1934 41.504 65.4694 41.796 65.8214 42.004C66.1814 42.212 66.5854 42.316 67.0334 42.316ZM77.7996 36.688V43H76.9836V41.752C76.7276 42.176 76.3876 42.5 75.9636 42.724C75.5476 42.948 75.0756 43.06 74.5476 43.06C73.9556 43.06 73.4196 42.924 72.9396 42.652C72.4596 42.38 72.0836 42 71.8116 41.512C71.5396 41.024 71.4036 40.468 71.4036 39.844C71.4036 39.22 71.5396 38.664 71.8116 38.176C72.0836 37.688 72.4596 37.312 72.9396 37.048C73.4196 36.776 73.9556 36.64 74.5476 36.64C75.0596 36.64 75.5196 36.748 75.9276 36.964C76.3436 37.172 76.6836 37.48 76.9476 37.888V36.688H77.7996ZM74.6196 42.304C75.0596 42.304 75.4556 42.204 75.8076 42.004C76.1676 41.796 76.4476 41.504 76.6476 41.128C76.8556 40.752 76.9596 40.324 76.9596 39.844C76.9596 39.364 76.8556 38.936 76.6476 38.56C76.4476 38.184 76.1676 37.896 75.8076 37.696C75.4556 37.488 75.0596 37.384 74.6196 37.384C74.1716 37.384 73.7676 37.488 73.4076 37.696C73.0556 37.896 72.7756 38.184 72.5676 38.56C72.3676 38.936 72.2676 39.364 72.2676 39.844C72.2676 40.324 72.3676 40.752 72.5676 41.128C72.7756 41.504 73.0556 41.796 73.4076 42.004C73.7676 42.204 74.1716 42.304 74.6196 42.304ZM82.8364 43.06C82.2124 43.06 81.6524 42.924 81.1564 42.652C80.6684 42.38 80.2844 42 80.0044 41.512C79.7244 41.016 79.5844 40.46 79.5844 39.844C79.5844 39.228 79.7244 38.676 80.0044 38.188C80.2844 37.7 80.6684 37.32 81.1564 37.048C81.6524 36.776 82.2124 36.64 82.8364 36.64C83.3804 36.64 83.8644 36.748 84.2884 36.964C84.7204 37.172 85.0604 37.48 85.3084 37.888L84.6724 38.32C84.4644 38.008 84.2004 37.776 83.8804 37.624C83.5604 37.464 83.2124 37.384 82.8364 37.384C82.3804 37.384 81.9684 37.488 81.6004 37.696C81.2404 37.896 80.9564 38.184 80.7484 38.56C80.5484 38.936 80.4484 39.364 80.4484 39.844C80.4484 40.332 80.5484 40.764 80.7484 41.14C80.9564 41.508 81.2404 41.796 81.6004 42.004C81.9684 42.204 82.3804 42.304 82.8364 42.304C83.2124 42.304 83.5604 42.228 83.8804 42.076C84.2004 41.924 84.4644 41.692 84.6724 41.38L85.3084 41.812C85.0604 42.22 84.7204 42.532 84.2884 42.748C83.8564 42.956 83.3724 43.06 82.8364 43.06ZM89.4566 43.06C88.8486 43.06 88.3006 42.924 87.8126 42.652C87.3246 42.372 86.9406 41.988 86.6606 41.5C86.3806 41.012 86.2406 40.46 86.2406 39.844C86.2406 39.228 86.3806 38.676 86.6606 38.188C86.9406 37.7 87.3246 37.32 87.8126 37.048C88.3006 36.776 88.8486 36.64 89.4566 36.64C90.0646 36.64 90.6126 36.776 91.1006 37.048C91.5886 37.32 91.9686 37.7 92.2406 38.188C92.5206 38.676 92.6606 39.228 92.6606 39.844C92.6606 40.46 92.5206 41.012 92.2406 41.5C91.9686 41.988 91.5886 42.372 91.1006 42.652C90.6126 42.924 90.0646 43.06 89.4566 43.06ZM89.4566 42.304C89.9046 42.304 90.3046 42.204 90.6566 42.004C91.0166 41.796 91.2966 41.504 91.4966 41.128C91.6966 40.752 91.7966 40.324 91.7966 39.844C91.7966 39.364 91.6966 38.936 91.4966 38.56C91.2966 38.184 91.0166 37.896 90.6566 37.696C90.3046 37.488 89.9046 37.384 89.4566 37.384C89.0086 37.384 88.6046 37.488 88.2446 37.696C87.8926 37.896 87.6126 38.184 87.4046 38.56C87.2046 38.936 87.1046 39.364 87.1046 39.844C87.1046 40.324 87.2046 40.752 87.4046 41.128C87.6126 41.504 87.8926 41.796 88.2446 42.004C88.6046 42.204 89.0086 42.304 89.4566 42.304ZM102.354 36.64C103.146 36.64 103.766 36.868 104.214 37.324C104.67 37.78 104.898 38.452 104.898 39.34V43H104.046V39.424C104.046 38.768 103.886 38.268 103.566 37.924C103.254 37.58 102.81 37.408 102.234 37.408C101.578 37.408 101.062 37.612 100.686 38.02C100.31 38.42 100.122 38.976 100.122 39.688V43H99.2695V39.424C99.2695 38.768 99.1095 38.268 98.7895 37.924C98.4775 37.58 98.0295 37.408 97.4455 37.408C96.7975 37.408 96.2815 37.612 95.8975 38.02C95.5215 38.42 95.3335 38.976 95.3335 39.688V43H94.4815V36.688H95.2975V37.84C95.5215 37.456 95.8335 37.16 96.2335 36.952C96.6335 36.744 97.0935 36.64 97.6135 36.64C98.1415 36.64 98.5975 36.752 98.9815 36.976C99.3735 37.2 99.6655 37.532 99.8575 37.972C100.09 37.556 100.422 37.232 100.854 37C101.294 36.76 101.794 36.64 102.354 36.64ZM109.634 43.132C108.77 43.132 108.106 42.92 107.642 42.496C107.186 42.064 106.958 41.456 106.958 40.672V36.688H107.81V39.316C108.002 39.084 108.27 38.892 108.614 38.74C108.958 38.588 109.358 38.512 109.814 38.512C110.582 38.512 111.178 38.712 111.602 39.112C112.034 39.504 112.25 40.04 112.25 40.72C112.25 41.192 112.142 41.612 111.926 41.98C111.718 42.34 111.414 42.624 111.014 42.832C110.622 43.032 110.162 43.132 109.634 43.132ZM113.282 36.688H114.134V43H113.282V36.688ZM109.658 42.472C110.202 42.472 110.626 42.312 110.93 41.992C111.234 41.664 111.386 41.248 111.386 40.744C111.386 40.272 111.23 39.892 110.918 39.604C110.606 39.308 110.166 39.16 109.598 39.16C109.182 39.16 108.818 39.248 108.506 39.424C108.202 39.6 107.97 39.844 107.81 40.156V40.732C107.81 41.276 107.966 41.704 108.278 42.016C108.598 42.32 109.058 42.472 109.658 42.472ZM125.256 36.688V43H124.44V41.848C124.216 42.232 123.908 42.532 123.516 42.748C123.124 42.956 122.676 43.06 122.172 43.06C121.34 43.06 120.684 42.832 120.204 42.376C119.732 41.912 119.496 41.236 119.496 40.348V36.688H120.348V40.264C120.348 40.928 120.512 41.432 120.84 41.776C121.168 42.12 121.64 42.292 122.256 42.292C122.92 42.292 123.444 42.092 123.828 41.692C124.212 41.284 124.404 40.72 124.404 40V36.688H125.256ZM133.293 43.072C132.669 43.072 132.069 42.972 131.493 42.772C130.925 42.572 130.485 42.308 130.173 41.98L130.521 41.296C130.825 41.6 131.229 41.848 131.733 42.04C132.237 42.224 132.757 42.316 133.293 42.316C134.045 42.316 134.609 42.18 134.985 41.908C135.361 41.628 135.549 41.268 135.549 40.828C135.549 40.492 135.445 40.224 135.237 40.024C135.037 39.824 134.789 39.672 134.493 39.568C134.197 39.456 133.785 39.336 133.257 39.208C132.625 39.048 132.121 38.896 131.745 38.752C131.369 38.6 131.045 38.372 130.773 38.068C130.509 37.764 130.377 37.352 130.377 36.832C130.377 36.408 130.489 36.024 130.713 35.68C130.937 35.328 131.281 35.048 131.745 34.84C132.209 34.632 132.785 34.528 133.473 34.528C133.953 34.528 134.421 34.596 134.877 34.732C135.341 34.86 135.741 35.04 136.077 35.272L135.777 35.98C135.425 35.748 135.049 35.576 134.649 35.464C134.249 35.344 133.857 35.284 133.473 35.284C132.737 35.284 132.181 35.428 131.805 35.716C131.437 35.996 131.253 36.36 131.253 36.808C131.253 37.144 131.353 37.416 131.553 37.624C131.761 37.824 132.017 37.98 132.321 38.092C132.633 38.196 133.049 38.312 133.569 38.44C134.185 38.592 134.681 38.744 135.057 38.896C135.441 39.04 135.765 39.264 136.029 39.568C136.293 39.864 136.425 40.268 136.425 40.78C136.425 41.204 136.309 41.592 136.077 41.944C135.853 42.288 135.505 42.564 135.033 42.772C134.561 42.972 133.981 43.072 133.293 43.072ZM141.504 34.6C142.576 34.6 143.416 34.856 144.024 35.368C144.632 35.88 144.936 36.584 144.936 37.48C144.936 38.376 144.632 39.08 144.024 39.592C143.416 40.096 142.576 40.348 141.504 40.348H139.248V43H138.36V34.6H141.504ZM141.48 39.568C142.312 39.568 142.948 39.388 143.388 39.028C143.828 38.66 144.048 38.144 144.048 37.48C144.048 36.8 143.828 36.28 143.388 35.92C142.948 35.552 142.312 35.368 141.48 35.368H139.248V39.568H141.48ZM150.089 34.528C151.177 34.528 152.033 34.848 152.657 35.488C153.289 36.12 153.605 37.036 153.605 38.236V43H152.729V40.528H147.449V43H146.585V38.236C146.585 37.036 146.897 36.12 147.521 35.488C148.153 34.848 149.009 34.528 150.089 34.528ZM152.729 39.76V38.152C152.729 37.216 152.497 36.512 152.033 36.04C151.569 35.56 150.921 35.32 150.089 35.32C149.257 35.32 148.609 35.56 148.145 36.04C147.681 36.512 147.449 37.216 147.449 38.152V39.76H152.729ZM164.915 36.688V42.232C164.915 43.304 164.671 44.096 164.183 44.608C163.695 45.128 162.959 45.388 161.975 45.388C161.423 45.388 160.899 45.3 160.403 45.124C159.915 44.956 159.519 44.72 159.215 44.416L159.647 43.768C159.919 44.04 160.255 44.252 160.655 44.404C161.055 44.556 161.483 44.632 161.939 44.632C162.667 44.632 163.203 44.444 163.547 44.068C163.891 43.7 164.063 43.124 164.063 42.34V41.608C163.839 41.976 163.531 42.26 163.139 42.46C162.755 42.66 162.319 42.76 161.831 42.76C161.007 42.76 160.355 42.532 159.875 42.076C159.403 41.612 159.167 40.936 159.167 40.048V36.688H160.019V39.964C160.019 40.628 160.183 41.132 160.511 41.476C160.839 41.82 161.307 41.992 161.915 41.992C162.579 41.992 163.103 41.792 163.487 41.392C163.871 40.984 164.063 40.42 164.063 39.7V36.688H164.915ZM169.965 43.06C169.341 43.06 168.781 42.924 168.285 42.652C167.797 42.38 167.413 42 167.133 41.512C166.853 41.016 166.713 40.46 166.713 39.844C166.713 39.228 166.853 38.676 167.133 38.188C167.413 37.7 167.797 37.32 168.285 37.048C168.781 36.776 169.341 36.64 169.965 36.64C170.509 36.64 170.993 36.748 171.417 36.964C171.849 37.172 172.189 37.48 172.437 37.888L171.801 38.32C171.593 38.008 171.329 37.776 171.009 37.624C170.689 37.464 170.341 37.384 169.965 37.384C169.509 37.384 169.097 37.488 168.729 37.696C168.369 37.896 168.085 38.184 167.877 38.56C167.677 38.936 167.577 39.364 167.577 39.844C167.577 40.332 167.677 40.764 167.877 41.14C168.085 41.508 168.369 41.796 168.729 42.004C169.097 42.204 169.509 42.304 169.965 42.304C170.341 42.304 170.689 42.228 171.009 42.076C171.329 41.924 171.593 41.692 171.801 41.38L172.437 41.812C172.189 42.22 171.849 42.532 171.417 42.748C170.985 42.956 170.501 43.06 169.965 43.06ZM179.036 36.688V43H178.184V37.444H175.16L175.076 39.004C175.012 40.316 174.86 41.324 174.62 42.028C174.38 42.732 173.952 43.084 173.336 43.084C173.168 43.084 172.964 43.052 172.724 42.988L172.784 42.256C172.928 42.288 173.028 42.304 173.084 42.304C173.412 42.304 173.66 42.152 173.828 41.848C173.996 41.544 174.108 41.168 174.164 40.72C174.22 40.272 174.268 39.68 174.308 38.944L174.416 36.688H179.036ZM187.122 36.688V42.232C187.122 43.304 186.878 44.096 186.39 44.608C185.902 45.128 185.166 45.388 184.182 45.388C183.63 45.388 183.106 45.3 182.61 45.124C182.122 44.956 181.726 44.72 181.422 44.416L181.854 43.768C182.126 44.04 182.462 44.252 182.862 44.404C183.262 44.556 183.69 44.632 184.146 44.632C184.874 44.632 185.41 44.444 185.754 44.068C186.098 43.7 186.27 43.124 186.27 42.34V41.608C186.046 41.976 185.738 42.26 185.346 42.46C184.962 42.66 184.526 42.76 184.038 42.76C183.214 42.76 182.562 42.532 182.082 42.076C181.61 41.612 181.374 40.936 181.374 40.048V36.688H182.226V39.964C182.226 40.628 182.39 41.132 182.718 41.476C183.046 41.82 183.514 41.992 184.122 41.992C184.786 41.992 185.31 41.792 185.694 41.392C186.078 40.984 186.27 40.42 186.27 39.7V36.688H187.122ZM193.996 37.444H190.384V43H189.532V36.688H193.996V37.444Z" fill="white"/>
</svg>
