<svg aria-hidden="true" xmlns="http://www.w3.org/2000/svg" xmlns:xlink="http://www.w3.org/1999/xlink"><symbol fill="none" viewBox="0 0 21 14" id="arrow" xmlns="http://www.w3.org/2000/svg"><path d="M.758 7.49V5.727H17.44l-4.48-4.592L14.05.042l6.408 6.566-6.408 6.567-1.093-1.092 4.481-4.592H.76Z" fill="currentColor"/></symbol><symbol fill="none" viewBox="0 0 17 12" id="burger" xmlns="http://www.w3.org/2000/svg"><path d="M8 0h9v2H8V0ZM0 5h17v2H0V5ZM0 10h17v2H0v-2Z" fill="currentColor"/></symbol><symbol fill="none" viewBox="0 0 24 25" id="cart" xmlns="http://www.w3.org/2000/svg"><path d="M20.2 6.5h-1.8a6 6 0 1 0-12 0h-3a3 3 0 0 0-3 3v10a5.006 5.006 0 0 0 5 5h12.8a5.006 5.006 0 0 0 5-5v-10a3 3 0 0 0-3-3Zm-7.8-4a4 4 0 0 1 4 4h-8a4 4 0 0 1 4-4Zm8.8 17a3 3 0 0 1-3 3H5.4a3 3 0 0 1-3-3v-10a1 1 0 0 1 1-1h3v2a1 1 0 1 0 2 0v-2h8v2a1 1 0 0 0 2 0v-2h1.8a1 1 0 0 1 1 1v10Z" fill="currentColor"/></symbol><symbol fill="none" viewBox="0 0 20 20" id="catalog" xmlns="http://www.w3.org/2000/svg"><g clip-path="url(#da)" stroke="currentColor" stroke-width="1.5" stroke-linecap="round" stroke-linejoin="round"><path d="M1.429 4.286a.714.714 0 1 0 0-1.429.714.714 0 0 0 0 1.429ZM6.429 3.571h12.857M1.429 10.714a.714.714 0 1 0 0-1.428.714.714 0 0 0 0 1.428ZM6.429 10h12.857M1.429 17.143a.714.714 0 1 0 0-1.429.714.714 0 0 0 0 1.429ZM6.429 16.429h12.857"/></g><defs><clipPath id="da"><path fill="currentColor" d="M0 0h20v20H0z"/></clipPath></defs></symbol><symbol fill="none" viewBox="0 0 24 24" id="check" xmlns="http://www.w3.org/2000/svg"><path fill-rule="evenodd" clip-rule="evenodd" d="M23.914 6.914 8.5 22.328.086 13.914l2.828-2.828L8.5 16.672 21.086 4.086l2.828 2.828Z" fill="currentColor"/></symbol><symbol fill="none" viewBox="0 0 14 14" id="close" xmlns="http://www.w3.org/2000/svg"><path d="M7 0C3.1 0 0 3.1 0 7s3.1 7 7 7 7-3.1 7-7-3.1-7-7-7Zm2.7 10.5L7 7.8l-2.7 2.7-.8-.8L6.2 7 3.5 4.3l.8-.8L7 6.2l2.7-2.7.8.8L7.8 7l2.7 2.7-.8.8Z" fill="currentColor"/></symbol><symbol fill="none" viewBox="0 0 12 12" id="del" xmlns="http://www.w3.org/2000/svg"><path d="m10.998 1.004-9.992 9.99M11 11 1 1" stroke="currentColor" stroke-linecap="round" stroke-linejoin="round"/></symbol><symbol fill="none" viewBox="0 0 12 7" id="dropdown" xmlns="http://www.w3.org/2000/svg"><path d="M11 1 6 6 1 1" stroke="currentColor" stroke-width="1.2" stroke-linecap="round" stroke-linejoin="round"/></symbol><symbol fill="none" viewBox="0 0 18 17" id="filter" xmlns="http://www.w3.org/2000/svg"><path d="M0 2.125h18v1.417H0V2.125ZM0 7.792h18v1.416H0V7.792ZM0 13.458h18v1.417H0v-1.417Z" fill="currentColor"/><path d="M7.615 2.833c0 1.565-1.24 2.834-2.769 2.834-1.53 0-2.77-1.269-2.77-2.834C2.077 1.27 3.317 0 4.847 0s2.77 1.269 2.77 2.833Z" fill="currentColor"/><path d="M6.23 2.833c0 .783-.62 1.417-1.384 1.417-.765 0-1.384-.634-1.384-1.417 0-.782.62-1.416 1.384-1.416.765 0 1.385.634 1.385 1.416Z" fill="currentColor"/><path d="M16.615 8.5c0 1.565-1.24 2.833-2.769 2.833-1.53 0-2.77-1.268-2.77-2.833 0-1.565 1.24-2.833 2.77-2.833s2.77 1.268 2.77 2.833ZM9.692 14.167c0 1.565-1.24 2.833-2.769 2.833-1.53 0-2.77-1.268-2.77-2.833 0-1.565 1.24-2.834 2.77-2.834s2.77 1.269 2.77 2.834Z" fill="currentColor"/><path d="M8.308 14.167c0 .782-.62 1.416-1.385 1.416s-1.385-.634-1.385-1.416c0-.783.62-1.417 1.385-1.417s1.385.634 1.385 1.417ZM15.23 8.5c0 .782-.62 1.417-1.384 1.417-.764 0-1.385-.635-1.385-1.417s.62-1.417 1.385-1.417 1.385.635 1.385 1.417Z" fill="currentColor"/></symbol><symbol fill="none" viewBox="0 0 25 23" id="heart" xmlns="http://www.w3.org/2000/svg"><path d="M17.7.417a6.4 6.4 0 0 0-5.5 3.3 6.4 6.4 0 0 0-5.5-3.3 6.8 6.8 0 0 0-6.5 7.05c0 6.775 10.957 14.6 11.423 14.932l.578.41.578-.41c.466-.33 11.422-8.157 11.422-14.932a6.8 6.8 0 0 0-6.5-7.05Zm-5.5 19.93c-3.252-2.43-10-8.4-10-12.88a4.8 4.8 0 0 1 4.5-5.05 4.8 4.8 0 0 1 4.5 5.05h2a4.8 4.8 0 0 1 4.5-5.05 4.8 4.8 0 0 1 4.5 5.05c0 4.481-6.746 10.45-10 12.88Z" fill="currentColor"/></symbol><symbol xml:space="preserve" viewBox="0 0 512 512" id="heart-full" xmlns="http://www.w3.org/2000/svg"><path d="M471.383 44.578C444.879 15.832 408.512 0 368.973 0c-29.555 0-56.621 9.344-80.45 27.77C276.5 37.07 265.605 48.45 256 61.73c-9.602-13.277-20.5-24.66-32.527-33.96C199.648 9.344 172.582 0 143.027 0c-39.539 0-75.91 15.832-102.414 44.578C14.426 72.988 0 111.801 0 153.871c0 43.3 16.137 82.938 50.781 124.742 30.992 37.395 75.535 75.356 127.117 119.313 17.614 15.012 37.579 32.027 58.309 50.152A30.023 30.023 0 0 0 256 455.516a30.03 30.03 0 0 0 19.785-7.43c20.73-18.129 40.707-35.152 58.328-50.172 51.575-43.95 96.117-81.906 127.11-119.305C495.867 236.81 512 197.172 512 153.867c0-42.066-14.426-80.879-40.617-109.289zm0 0" data-original="#000000"/></symbol><symbol fill="none" viewBox="0 0 45 45" id="icon" xmlns="http://www.w3.org/2000/svg"><rect width="45" height="45" rx="14" fill="currentColor"/><rect width="45" height="45" rx="12" fill="currentColor"/><path d="m17.444 18.355 5.84.93L15 33.684l2.444-15.328Z" fill="currentColor"/><path d="m25.556 26.259-5.84-.931L28 10.93l-2.444 15.328Z" fill="currentColor"/></symbol><symbol fill="none" viewBox="0 0 20 20" id="logo" xmlns="http://www.w3.org/2000/svg"><path d="M0 9.55c0-1.348.243-2.598.73-3.752a9.336 9.336 0 0 1 2.082-3.043A9.478 9.478 0 0 1 5.95.735C7.156.245 8.454 0 9.842 0s2.677.245 3.867.735a9.125 9.125 0 0 1 3.137 2.02 8.813 8.813 0 0 1 2.082 3.043c.504 1.154.757 2.404.757 3.751a9.447 9.447 0 0 1-.757 3.778 9.154 9.154 0 0 1-2.082 3.043 9.666 9.666 0 0 1-3.137 2.02c-1.19.472-2.479.708-3.867.708s-2.686-.236-3.893-.708a10.065 10.065 0 0 1-3.137-2.02A9.722 9.722 0 0 1 .73 13.327C.243 12.155 0 10.896 0 9.549Zm2.055 0c0 1.162.138 2.231.413 3.208a9.277 9.277 0 0 0 .56 1.487c.604 1.236 1.433 2.222 2.488 2.959.08.055.161.11.243.163.257.16.524.304.799.43.98.448 2.074.672 3.284.672 1.55 0 2.912-.368 4.083-1.102 1.172-.752 2.082-1.802 2.731-3.148.65-1.347.974-2.903.974-4.67 0-1.151-.138-2.21-.414-3.176a9.055 9.055 0 0 0-.56-1.467c-.573-1.19-1.35-2.148-2.332-2.873a6.861 6.861 0 0 0-1.07-.654c-1.011-.5-2.149-.75-3.412-.75-1.55 0-2.91.377-4.083 1.129-1.153.734-2.064 1.775-2.73 3.121-.65 1.33-.974 2.886-.974 4.67Z" fill="currentColor"/><path d="M13.28 3.466c.049.32.094.616.104.652.017.064 1.07.366 1.122.323.014-.013-.02-.273-.076-.572-.09-.502-.128-1.266-.106-1.836.007-.171.02-.324.038-.448L13.348.824c-.038.182-.07.367-.093.554a7.836 7.836 0 0 0 .026 2.088ZM17.433 5.297l-.543-.013-.061-.002c-.638-.019-1.378-.136-2.296-.368-2.154-.546-3.455-.662-4.772-.436-1.572.273-3.03 1.062-3.809 2.064a6.64 6.64 0 0 0-1.403 4.47c.034.6.168 1.529.23 1.562.096.053 1.06.276 1.074.25a9.834 9.834 0 0 0-.083-.68c-.103-.718-.158-1.404-.113-1.447.014-.014.508.439 1.095 1.008 1.228 1.192 1.269 1.219 1.526.976a.322.322 0 0 0 .1-.237c-.007-.126-.086-.21-1.314-1.421L5.756 9.734l.049-.233c.024-.13.085-.356.133-.502l.09-.26 1.88 1.824c1.942 1.884 2.072 1.998 2.271 1.938.158-.047.302-.213.316-.366l.017-.143L6.405 7.94l.134-.203c.075-.113.188-.276.26-.366l.12-.163 2.193 2.127c1.561 1.515 2.23 2.144 2.32 2.177.277.097.573-.19.473-.46-.034-.086-.683-.735-2.244-2.25L7.47 6.675l.171-.12c.09-.066.26-.18.374-.25l.21-.13 4.175 3.986.148-.017a.476.476 0 0 0 .377-.306c.062-.193-.055-.32-1.997-2.204L9.047 5.81l.271-.09a5.81 5.81 0 0 1 .515-.127l.24-.046L11.4 6.815c1.249 1.192 1.334 1.268 1.465 1.275.202.01.367-.17.343-.366-.02-.153-.058-.197-1.095-1.202-.593-.576-1.063-1.058-1.05-1.072.049-.046 1.17.043 1.737.14.298.05.813.163 1.149.25 1.283.331 2.332.508 3.266.533.427.012.83-.008 1.221-.06l-1.004-1.016Z" fill="currentColor"/><path fill-rule="evenodd" clip-rule="evenodd" d="M13.95 6.312c.01-.01.25.037.532.103.277.064.528.134.552.15.123.1.271 1.774.216 2.46-.13 1.578-.768 2.99-1.815 4.005a5.848 5.848 0 0 1-2.23 1.338c-1.692.556-3.112.543-5.569-.056-1.345-.327-1.962-.431-2.783-.456l-.154-.004-.868-1.068c.212-.018.422-.026.637-.026.92.003 1.931.175 3.628.602 1.534.389 2.851.436 4.052.15 1.242-.3 2.367-1.02 2.982-1.908.936-1.355 1.214-2.85.892-4.74-.052-.29-.083-.54-.072-.55Z" fill="currentColor"/><path d="m5.828 14.81-.563-.14.066.324c.092.452.185 1.722.185 2.21 0 .112-.005.182-.016.193l1.045.499.013-.099c.09-.722.068-1.497-.06-2.35a3.267 3.267 0 0 0-.09-.48c-.01-.01-.274-.08-.58-.156Z" fill="currentColor"/></symbol><symbol fill="none" viewBox="0 0 25 25" id="search" xmlns="http://www.w3.org/2000/svg"><path d="m24.307 22.794-5.97-5.97a10.016 10.016 0 1 0-1.413 1.415l5.969 5.969a1 1 0 0 0 1.414-1.414ZM10.6 18.5a8 8 0 1 1 8-8 8.009 8.009 0 0 1-8 8Z" fill="currentColor"/></symbol><symbol fill="none" viewBox="0 0 43 43" id="tg" xmlns="http://www.w3.org/2000/svg"><rect x="42" y="1" width="41" height="41" rx="14" transform="rotate(90 42 1)" stroke="currentColor" stroke-width="2"/><path d="M29.426 13.918c.31.13.46.429.46.92 0 .452-2.976 14.598-3.136 14.908-.226.436-.707.602-1.203.413-.165-.062-1.793-1.236-4.172-3.005l-.59-.44-1.28 1.223c-.933.89-1.342 1.236-1.51 1.273-.126.028-.245.034-.265.015-.019-.02.033-1.045.116-2.279l.151-2.243.494-.458c.272-.252 2.179-1.981 4.238-3.843 2.058-1.861 3.742-3.43 3.742-3.487 0-.072-.075-.1-.249-.096-.201.006-1.246.635-5.465 3.294-2.869 1.808-5.252 3.287-5.297 3.287-.194 0-4.633-1.428-4.844-1.558-.45-.278-.354-.7.234-1.028.152-.086 1.274-.54 2.493-1.01l5.102-1.97 6.301-2.433c4.118-1.591 4.08-1.577 4.28-1.58.088-.002.268.042.4.097Z" fill="currentColor"/></symbol><symbol xml:space="preserve" viewBox="0 0 512 512" id="user" xmlns="http://www.w3.org/2000/svg"><path d="M437.02 74.98C388.668 26.63 324.379 0 256 0S123.332 26.629 74.98 74.98C26.63 123.332 0 187.621 0 256s26.629 132.668 74.98 181.02C123.332 485.37 187.621 512 256 512s132.668-26.629 181.02-74.98C485.37 388.668 512 324.379 512 256s-26.629-132.668-74.98-181.02zM111.105 429.297c8.454-72.735 70.989-128.89 144.895-128.89 38.96 0 75.598 15.179 103.156 42.734 23.281 23.285 37.965 53.687 41.742 86.152C361.641 462.172 311.094 482 256 482s-105.637-19.824-144.895-52.703zM256 269.507c-42.871 0-77.754-34.882-77.754-77.753C178.246 148.879 213.13 114 256 114s77.754 34.879 77.754 77.754c0 42.871-34.883 77.754-77.754 77.754zm170.719 134.427a175.9 175.9 0 0 0-46.352-82.004c-18.437-18.438-40.25-32.27-64.039-40.938 28.598-19.394 47.426-52.16 47.426-89.238C363.754 132.34 315.414 84 256 84s-107.754 48.34-107.754 107.754c0 37.098 18.844 69.875 47.465 89.266-21.887 7.976-42.14 20.308-59.566 36.542-25.235 23.5-42.758 53.465-50.883 86.348C50.852 364.242 30 312.512 30 256 30 131.383 131.383 30 256 30s226 101.383 226 226c0 56.523-20.86 108.266-55.281 147.934zm0 0" data-original="#000000"/></symbol><symbol fill="none" viewBox="0 0 43 43" id="vk" xmlns="http://www.w3.org/2000/svg"><rect x="42" y="1" width="41" height="41" rx="14" transform="rotate(90 42 1)" stroke="currentColor" stroke-width="2"/><path d="M22.936 20.977c-.39-.147-.39-.708-.415-1.099-.098-1.391.39-3.515-.195-4.418-.415-.538-2.418-.489-3.638-.415-.342.049-.757.121-1.05.268-.293.147-.586.391-.586.61 0 .318.733.27 1 .684.294.44.294 1.392.294 2.173 0 .903-.147 2.1-.513 2.148-.561.024-.879-.537-1.171-.952a16.293 16.293 0 0 1-1.612-2.784c-.22-.512-.342-1.074-.66-1.293-.488-.343-1.367-.367-2.222-.343-.78.025-1.904-.073-2.124.391-.17.512.196 1 .39 1.416 1.002 2.173 2.076 4.078 3.395 5.884 1.22 1.684 2.368 3.027 4.614 3.735.635.195 3.418.757 3.98 0 .195-.293.146-.952.244-1.44.098-.489.22-.977.683-1.001.391-.024.61.317.855.561.269.27.489.489.684.733.464.464.952 1.099 1.538 1.343.806.342 2.05.245 3.223.195.952-.024 1.636-.219 1.71-.78.048-.44-.44-1.075-.734-1.441-.733-.904-1.074-1.172-1.904-2.003-.367-.366-.83-.757-.83-1.196-.025-.268.195-.512.39-.781.855-1.27 1.71-2.173 2.49-3.491.22-.391.733-1.294.538-1.734-.22-.488-1.44-.342-2.198-.342-.976 0-2.246-.074-2.49.122-.464.317-.66.83-.88 1.318-.488 1.124-1.147 2.27-1.83 3.125-.245.293-.708.903-.977.806Z" fill="currentColor"/></symbol><symbol fill="none" viewBox="0 0 43 43" id="yuotube" xmlns="http://www.w3.org/2000/svg"><rect x="42" y="1" width="41" height="41" rx="14" transform="rotate(90 42 1)" stroke="currentColor" stroke-width="2"/><path d="M32.2 15.498a2.832 2.832 0 0 0-2.012-2.026 68.612 68.612 0 0 0-8.854-.467 68.613 68.613 0 0 0-8.854.467 2.833 2.833 0 0 0-2.012 2.026 30.126 30.126 0 0 0-.467 5.469 30.342 30.342 0 0 0 .467 5.496 2.833 2.833 0 0 0 2.012 1.983c2.938.347 5.895.503 8.854.468a68.612 68.612 0 0 0 8.854-.468 2.832 2.832 0 0 0 2.012-1.983c.322-1.814.479-3.654.467-5.497a30.123 30.123 0 0 0-.467-5.468Zm-13.19 8.854V17.61l5.936 3.357-5.935 3.372v.014Z" fill="currentColor"/></symbol></svg>