<svg width="20" height="20" viewBox="0 0 20 20" fill="none" xmlns="http://www.w3.org/2000/svg">
<path d="M0 9.54911C0 8.20245 0.243359 6.95196 0.730071 5.79767C1.23481 4.6259 1.92883 3.61153 2.81212 2.75456C3.71344 1.8801 4.75897 1.20676 5.94871 0.734548C7.15648 0.24485 8.45438 0 9.84241 0C11.2304 0 12.5193 0.24485 13.7091 0.734548C14.9168 1.20676 15.9624 1.8801 16.8457 2.75456C17.747 3.61153 18.441 4.6259 18.9277 5.79767C19.4324 6.95196 19.6848 8.20245 19.6848 9.54911C19.6848 10.8958 19.4324 12.155 18.9277 13.3268C18.441 14.4811 17.747 15.4954 16.8457 16.3699C15.9624 17.2269 14.9168 17.9002 13.7091 18.3899C12.5193 18.8621 11.2304 19.0982 9.84241 19.0982C8.45438 19.0982 7.15648 18.8621 5.94871 18.3899C4.75897 17.9002 3.71344 17.2269 2.81212 16.3699C1.92883 15.4954 1.23481 14.4811 0.730071 13.3268C0.243359 12.155 0 10.8958 0 9.54911ZM2.055 9.54911C2.055 10.7117 2.19281 11.7814 2.46843 12.7583C2.57562 13.1382 2.70365 13.504 2.85252 13.8558C2.90824 13.9875 2.96687 14.1172 3.02843 14.245C3.63172 15.4806 4.46091 16.4669 5.51598 17.2038C5.59584 17.2595 5.67699 17.3139 5.75943 17.3668C6.01645 17.5279 6.28258 17.6714 6.55782 17.7972C7.53734 18.2448 8.6322 18.4686 9.84241 18.4686C11.3927 18.4686 12.7537 18.1013 13.9254 17.3668C15.0971 16.6148 16.0074 15.5654 16.6564 14.2187C17.3053 12.8721 17.6298 11.3155 17.6298 9.54911C17.6298 8.39758 17.4919 7.33895 17.2161 6.37323C17.1082 5.99532 16.9792 5.63165 16.829 5.2822C16.7743 5.15481 16.7167 5.02932 16.6564 4.90572C16.0831 3.71599 15.3057 2.75832 14.3244 2.0327C14.1949 1.93699 14.0619 1.84531 13.9254 1.75767C13.7083 1.61832 13.4847 1.49188 13.2546 1.37835C12.2428 0.879193 11.1054 0.629612 9.84241 0.629612C8.29214 0.629612 6.93115 1.00563 5.75943 1.75767C4.60574 2.49221 3.69541 3.53283 3.02843 4.87949C2.37948 6.20867 2.055 7.76521 2.055 9.54911Z" fill="#BF9D6E"/>
<path d="M13.2809 3.46582C13.329 3.78539 13.3736 4.08166 13.3839 4.11828C13.401 4.18153 14.4544 4.48446 14.5059 4.44119C14.5196 4.42787 14.4853 4.16822 14.4304 3.86862C14.3406 3.36662 14.3016 2.60252 14.3244 2.0327C14.3312 1.86192 14.3436 1.70858 14.3618 1.58499L13.3482 0.82402C13.3096 1.00602 13.2784 1.19085 13.2546 1.37835C13.1701 2.04278 13.1785 2.74084 13.2809 3.46582Z" fill="#BF9D6E"/>
<path d="M17.4327 5.29706L16.8905 5.28375C16.8701 5.28333 16.8496 5.28282 16.829 5.2822C16.191 5.26302 15.4507 5.14642 14.5333 4.91424C12.3786 4.3683 11.0782 4.25179 9.76062 4.47815C8.18915 4.75112 6.73092 5.54008 5.95205 6.54207C4.95015 7.83369 4.4595 9.39494 4.54871 11.0128C4.58302 11.612 4.71683 12.5407 4.77859 12.574C4.87466 12.6273 5.83882 12.8503 5.85255 12.8237C5.85598 12.8071 5.82166 12.5008 5.77019 12.1446C5.66726 11.4256 5.61236 10.7398 5.65697 10.6965C5.67069 10.6832 6.16478 11.136 6.7515 11.7052C7.97985 12.8969 8.02103 12.9236 8.27837 12.6806C8.34356 12.6173 8.3813 12.5274 8.37786 12.4442C8.371 12.3177 8.2921 12.2345 7.06374 11.0228L5.75647 9.73449L5.80451 9.50147C5.82853 9.37164 5.89029 9.14528 5.93833 8.9988L6.02754 8.73915L7.9078 10.5634C9.84983 12.4475 9.98021 12.5607 10.1792 12.5008C10.3371 12.4542 10.4812 12.2878 10.4949 12.1346L10.512 11.9915L6.40496 7.94021L6.53877 7.73715C6.61426 7.62397 6.72748 7.46085 6.79954 7.37097L6.91963 7.20785L9.11213 9.33502C10.6733 10.8497 11.3424 11.4788 11.4316 11.5121C11.7095 11.6087 12.0046 11.3224 11.9051 11.0527C11.8708 10.9662 11.2223 10.317 9.66112 8.80239L7.46861 6.67523L7.64017 6.55539C7.72938 6.48881 7.90094 6.37563 8.01417 6.30572L8.22347 6.1759L12.3992 10.1606L12.5467 10.1439C12.7045 10.1306 12.8761 9.99082 12.9241 9.83769C12.9859 9.64461 12.8692 9.51811 10.9272 7.63395L9.04694 5.80971L9.318 5.71984C9.46554 5.67656 9.69886 5.61664 9.83267 5.59333L10.0729 5.54673L11.4007 6.81504C12.6496 8.00679 12.7354 8.08335 12.8658 8.09001C13.0682 8.1 13.2329 7.92024 13.2089 7.72383C13.1883 7.5707 13.1506 7.52742 12.1144 6.5221C11.5208 5.9462 11.0507 5.46351 11.0645 5.45019C11.1125 5.40359 12.2345 5.49347 12.8006 5.59001C13.0991 5.63994 13.6138 5.75312 13.95 5.83968C15.2326 6.17138 16.2816 6.34808 17.2161 6.37323C17.6433 6.38472 18.0466 6.36455 18.4373 6.31303L17.4327 5.29706Z" fill="#BF9D6E"/>
<path fill-rule="evenodd" clip-rule="evenodd" d="M13.9497 6.31218C13.96 6.30219 14.2002 6.3488 14.4816 6.41538C14.7595 6.47863 15.0099 6.54853 15.034 6.56518C15.1575 6.66504 15.305 8.33948 15.2501 9.02523C15.1197 10.6031 14.4816 12.0146 13.4351 13.0299C12.8243 13.6224 12.042 14.0951 11.2048 14.3681C9.51325 14.924 8.09276 14.9107 5.63606 14.3115C4.29109 13.9853 3.67423 13.8808 2.85252 13.8558C2.80219 13.8543 2.75108 13.8531 2.699 13.8521L1.83093 12.7836C2.04349 12.7665 2.25346 12.7577 2.46843 12.7583C3.38817 12.7605 4.39936 12.9331 6.09584 13.3595C7.62956 13.7489 8.94712 13.7955 10.148 13.5093C11.3901 13.2097 12.5155 12.4906 13.1297 11.6018C14.0664 10.2469 14.3443 8.75226 14.0218 6.86145C13.9703 6.57184 13.9394 6.32216 13.9497 6.31218Z" fill="#BF9D6E"/>
<path d="M5.82816 14.8106L5.26545 14.6708L5.33064 14.9937C5.42276 15.446 5.51588 16.7156 5.51598 17.2038C5.516 17.3156 5.51114 17.3864 5.50027 17.397L6.54467 17.8959C6.54929 17.8631 6.55367 17.8302 6.55782 17.7972C6.64854 17.0751 6.62601 16.2998 6.49724 15.4464C6.46293 15.1934 6.41832 14.977 6.40802 14.9671C6.39773 14.9571 6.13354 14.8872 5.82816 14.8106Z" fill="#BF9D6E"/>
</svg>
