<svg width="224" height="23" viewBox="0 0 224 23" fill="none" xmlns="http://www.w3.org/2000/svg">
<path d="M91.1468 22.5577L80.4659 11.2157L90.3653 0.442305H93.1657L82.4523 10.331L94.0775 22.5577H91.1468ZM77.0792 22.5577V0.442305H79.2936V22.5577H77.0792Z" fill="#242528"/>
<path d="M98.958 0.442305H103.322C105.623 0.442305 107.403 0.91621 108.662 1.86401C109.943 2.79075 110.583 4.09662 110.583 5.7816C110.583 7.08746 110.182 8.17216 109.378 9.03571C108.597 9.89927 107.457 10.4785 105.959 10.7734V10.9629C107.392 11.2367 108.564 11.8897 109.476 12.9217C110.388 13.9538 111.072 15.228 111.528 16.7445C111.94 18.1346 112.342 19.2193 112.733 19.9986C113.145 20.7569 113.59 21.3045 114.068 21.6415C114.567 21.9785 115.153 22.2207 115.826 22.3681V22.5577H114.491C113.536 22.5577 112.743 22.3892 112.114 22.0522C111.506 21.7152 110.985 21.1465 110.551 20.3461C110.117 19.5458 109.704 18.44 109.313 17.0288C108.684 14.8594 107.848 13.3219 106.806 12.4162C105.764 11.5105 104.494 11.0577 102.996 11.0577H102.801V10.489H102.996C106.491 10.489 108.239 8.9304 108.239 5.81318C108.239 2.73809 106.6 1.20055 103.322 1.20055H101.172V22.5577H98.958V0.442305Z" fill="#242528"/>
<path d="M117.45 22.5577L126.21 0.442305H128.229L136.988 22.5577H134.611L130.573 12.1951H123.181L119.827 22.5577H117.45ZM126.438 2.08517L123.409 11.4368H130.28L126.633 2.08517H126.438Z" fill="#242528"/>
<path d="M140.284 21.8626L140.479 19.967H140.675C141.521 20.6832 142.477 21.2413 143.54 21.6415C144.604 22.0417 145.657 22.2418 146.699 22.2418C148.175 22.2418 149.369 21.8521 150.281 21.0728C151.193 20.2724 151.649 19.2088 151.649 17.8819C151.649 17.1447 151.475 16.4602 151.128 15.8283C150.802 15.1964 150.249 14.554 149.467 13.9011C148.707 13.2482 147.654 12.5426 146.308 11.7843C145.375 11.2578 144.485 10.7102 143.638 10.1415C142.791 9.55174 142.097 8.87776 141.554 8.11951C141.011 7.34021 140.74 6.41346 140.74 5.33929C140.74 3.73856 141.337 2.45376 142.531 1.4849C143.725 0.494971 145.299 0 147.253 0C148.121 0 149.055 0.0947826 150.053 0.284343C151.052 0.452842 151.822 0.673991 152.365 0.947801L152.202 2.71703H152.007C150.77 1.41117 149.185 0.758243 147.253 0.758243C145.863 0.758243 144.745 1.10577 143.899 1.80083C143.052 2.47482 142.629 3.39103 142.629 4.54945C142.629 5.413 142.857 6.16072 143.312 6.79259C143.79 7.4034 144.398 7.96154 145.136 8.46704C145.874 8.95147 146.667 9.42537 147.513 9.88874C148.49 10.4364 149.434 11.0156 150.346 11.6264C151.28 12.2372 152.04 12.9744 152.626 13.8379C153.234 14.6804 153.537 15.7441 153.537 17.0288C153.537 18.2083 153.255 19.2509 152.691 20.1566C152.126 21.0412 151.323 21.7363 150.281 22.2418C149.261 22.7473 148.067 23 146.699 23C145.831 23 144.81 22.8947 143.638 22.6841C142.466 22.4734 141.348 22.1996 140.284 21.8626Z" fill="#242528"/>
<path d="M158.323 11.5C158.323 9.87821 158.616 8.37225 159.203 6.98214C159.81 5.57097 160.646 4.34937 161.71 3.31731C162.795 2.2642 164.055 1.4533 165.487 0.884617C166.942 0.294873 168.505 0 170.177 0C171.848 0 173.4 0.294873 174.833 0.884617C176.288 1.4533 177.547 2.2642 178.611 3.31731C179.696 4.34937 180.532 5.57097 181.118 6.98214C181.726 8.37225 182.03 9.87821 182.03 11.5C182.03 13.1218 181.726 14.6383 181.118 16.0495C180.532 17.4396 179.696 18.6612 178.611 19.7143C177.547 20.7463 176.288 21.5572 174.833 22.147C173.4 22.7157 171.848 23 170.177 23C168.505 23 166.942 22.7157 165.487 22.147C164.055 21.5572 162.795 20.7463 161.71 19.7143C160.646 18.6612 159.81 17.4396 159.203 16.0495C158.616 14.6383 158.323 13.1218 158.323 11.5ZM160.798 11.5C160.798 13.6484 161.189 15.5334 161.971 17.1552C162.752 18.756 163.848 20.0092 165.259 20.9148C166.671 21.7995 168.31 22.2418 170.177 22.2418C172.044 22.2418 173.683 21.7995 175.094 20.9148C176.505 20.0092 177.601 18.7454 178.383 17.1236C179.164 15.5018 179.555 13.6273 179.555 11.5C179.555 9.37272 179.164 7.5087 178.383 5.90797C177.601 4.28617 176.505 3.02244 175.094 2.11676C173.683 1.21108 172.044 0.758243 170.177 0.758243C168.31 0.758243 166.671 1.21108 165.259 2.11676C163.87 3.00138 162.774 4.25459 161.971 5.87638C161.189 7.47711 160.798 9.35166 160.798 11.5Z" fill="#242528"/>
<path d="M193.083 22.5577V1.07418C192.757 1.07418 192.084 1.13736 191.064 1.26373L184.681 2.05358V0.442305H203.698V2.05358L197.316 1.26373C196.296 1.13736 195.623 1.07418 195.297 1.07418V22.5577H193.083Z" fill="#242528"/>
<path d="M213.873 22.5577V13.206L205.797 0.442305H208.272L215.533 12.0055H215.729L221.525 0.442305H224L216.217 12.7637V22.5577H213.873Z" fill="#242528"/>
<path d="M14.0676 22.5577L3.38664 11.2157L13.286 0.442305H16.0865L5.37303 10.331L16.9983 22.5577H14.0676ZM0 22.5577V0.442305H2.21434V22.5577H0Z" fill="#BF9D6E"/>
<path d="M18.9468 11.5C18.9468 9.87821 19.2399 8.37225 19.826 6.98214C20.4339 5.57097 21.2697 4.34937 22.3334 3.31731C23.4189 2.2642 24.678 1.4533 26.1108 0.884617C27.5653 0.294873 29.1284 0 30.8 0C32.4716 0 34.0238 0.294873 35.4566 0.884617C36.9112 1.4533 38.1703 2.2642 39.234 3.31731C40.3195 4.34937 41.1553 5.57097 41.7415 6.98214C42.3493 8.37225 42.6532 9.87821 42.6532 11.5C42.6532 13.1218 42.3493 14.6383 41.7415 16.0495C41.1553 17.4396 40.3195 18.6612 39.234 19.7143C38.1703 20.7463 36.9112 21.5572 35.4566 22.147C34.0238 22.7157 32.4716 23 30.8 23C29.1284 23 27.5653 22.7157 26.1108 22.147C24.678 21.5572 23.4189 20.7463 22.3334 19.7143C21.2697 18.6612 20.4339 17.4396 19.826 16.0495C19.2399 14.6383 18.9468 13.1218 18.9468 11.5ZM21.4216 11.5C21.4216 12.9001 21.5876 14.1884 21.9195 15.3648C22.0486 15.8223 22.2028 16.2629 22.3821 16.6866C22.4492 16.8452 22.5198 17.0014 22.5939 17.1552C23.3205 18.6433 24.3191 19.8311 25.5897 20.7185C25.6859 20.7857 25.7836 20.8511 25.8829 20.9148C26.1924 21.1089 26.5129 21.2817 26.8444 21.4331C28.024 21.9722 29.3426 22.2418 30.8 22.2418C32.667 22.2418 34.306 21.7995 35.7171 20.9148C37.1282 20.0092 38.2246 18.7454 39.0061 17.1236C39.7876 15.5018 40.1784 13.6273 40.1784 11.5C40.1784 10.1132 40.0123 8.8383 39.6802 7.67528C39.5502 7.22017 39.3948 6.7822 39.214 6.36135C39.1481 6.20795 39.0788 6.05682 39.0061 5.90797C38.3156 4.47517 37.3795 3.32185 36.1977 2.44799C36.0418 2.33272 35.8816 2.22231 35.7171 2.11676C35.4557 1.94894 35.1864 1.79667 34.9093 1.65995C33.6908 1.05881 32.3211 0.758243 30.8 0.758243C28.933 0.758243 27.294 1.21108 25.8829 2.11676C24.4935 3.00138 23.3972 4.25459 22.5939 5.87638C21.8124 7.47711 21.4216 9.35166 21.4216 11.5Z" fill="#BF9D6E"/>
<path d="M34.941 4.17389C34.9989 4.55875 35.0526 4.91555 35.065 4.95965C35.0857 5.03582 36.3542 5.40064 36.4162 5.34853C36.4327 5.33249 36.3914 5.01979 36.3253 4.65898C36.2172 4.05442 36.1703 3.13422 36.1977 2.44799C36.2059 2.24231 36.2207 2.05765 36.2427 1.90881L35.022 0.992368C34.9755 1.21155 34.938 1.43414 34.9093 1.65995C34.8076 2.46012 34.8176 3.3008 34.941 4.17389Z" fill="#BF9D6E"/>
<path d="M39.941 6.37926L39.2881 6.36323C39.2635 6.36272 39.2388 6.3621 39.214 6.36135C38.4456 6.33826 37.5541 6.19784 36.4493 5.91823C33.8543 5.26075 32.2882 5.12043 30.7015 5.39305C28.809 5.72178 27.0528 6.67192 26.1148 7.87863C24.9083 9.43412 24.3174 11.3143 24.4248 13.2627C24.4661 13.9843 24.6273 15.1028 24.7016 15.1429C24.8173 15.2071 25.9785 15.4757 25.995 15.4436C25.9991 15.4236 25.9578 15.0547 25.8958 14.6258C25.7719 13.7598 25.7058 12.934 25.7595 12.8819C25.776 12.8658 26.371 13.411 27.0776 14.0966C28.5569 15.5318 28.6065 15.5639 28.9164 15.2712C28.9949 15.195 29.0404 15.0868 29.0363 14.9866C29.028 14.8342 28.933 14.734 27.4537 13.2747L25.8793 11.7233L25.9372 11.4426C25.9661 11.2863 26.0405 11.0137 26.0983 10.8373L26.2058 10.5246L28.4702 12.7215C30.8089 14.9906 30.966 15.1269 31.2056 15.0547C31.3957 14.9986 31.5693 14.7982 31.5858 14.6137L31.6064 14.4414L26.6603 9.5624L26.8214 9.31786C26.9123 9.18155 27.0487 8.98511 27.1355 8.87686L27.2801 8.68042L29.9205 11.2422C31.8007 13.0663 32.6064 13.824 32.7139 13.8641C33.0486 13.9803 33.4039 13.6355 33.2841 13.3108C33.2428 13.2066 32.4618 12.4248 30.5817 10.6007L27.9412 8.03898L28.1479 7.89466C28.2553 7.81448 28.4619 7.67817 28.5983 7.59398L28.8503 7.43764L33.8791 12.2364L34.0568 12.2164C34.2469 12.2003 34.4535 12.0319 34.5113 11.8475C34.5857 11.615 34.4452 11.4627 32.1064 9.19357L29.842 6.99664L30.1685 6.8884C30.3461 6.83629 30.6271 6.76412 30.7883 6.73606L31.0775 6.67994L32.6767 8.20736C34.1808 9.64258 34.2841 9.73479 34.4411 9.74281C34.6849 9.75483 34.8832 9.53835 34.8543 9.30182C34.8295 9.11741 34.7841 9.06528 33.5362 7.85457C32.8213 7.16101 32.2552 6.57971 32.2717 6.56367C32.3296 6.50754 33.6808 6.61579 34.3626 6.73205C34.7221 6.79219 35.3419 6.92849 35.7468 7.03273C37.2914 7.4322 38.5547 7.645 39.6802 7.67528C40.1947 7.68913 40.6803 7.66483 41.1509 7.60278L39.941 6.37926Z" fill="#BF9D6E"/>
<path fill-rule="evenodd" clip-rule="evenodd" d="M35.7465 7.60176C35.7589 7.58973 36.0481 7.64587 36.3869 7.72605C36.7216 7.80222 37.0233 7.88641 37.0522 7.90645C37.201 8.02672 37.3787 10.0432 37.3125 10.8691C37.1555 12.7694 36.3869 14.4692 35.1266 15.6919C34.3911 16.4055 33.449 16.9748 32.4408 17.3035C30.4036 17.973 28.6929 17.957 25.7343 17.2354C24.1146 16.8425 23.3717 16.7166 22.3821 16.6866C22.3215 16.6848 22.2599 16.6833 22.1972 16.6821L21.1518 15.3953C21.4078 15.3747 21.6606 15.3642 21.9195 15.3648C23.0272 15.3675 24.2449 15.5754 26.288 16.0888C28.1351 16.5579 29.7218 16.614 31.1681 16.2692C32.6639 15.9084 34.0192 15.0425 34.7589 13.9721C35.887 12.3404 36.2217 10.5404 35.8332 8.26325C35.7713 7.91447 35.7341 7.61379 35.7465 7.60176Z" fill="#BF9D6E"/>
<path d="M25.9657 17.8364L25.288 17.668L25.3665 18.0569C25.4774 18.6016 25.5896 20.1307 25.5897 20.7185C25.5897 20.8532 25.5839 20.9385 25.5708 20.9512L26.8285 21.552C26.8341 21.5125 26.8394 21.4729 26.8444 21.4331C26.9536 20.5635 26.9265 19.6298 26.7714 18.6021C26.7301 18.2975 26.6764 18.0369 26.664 18.0248C26.6516 18.0128 26.3334 17.9286 25.9657 17.8364Z" fill="#BF9D6E"/>
<path fill-rule="evenodd" clip-rule="evenodd" d="M49.4817 22.5577V0.442305H56.6457C59.164 0.442305 61.3566 0.905684 63.2236 1.83242C65.0906 2.75916 66.5451 4.05449 67.5872 5.71841C68.6292 7.36126 69.1502 9.28847 69.1502 11.5C69.1502 13.7115 68.6292 15.6493 67.5872 17.3132C66.5451 18.956 65.0906 20.2408 63.2236 21.1676C61.3566 22.0943 59.164 22.5577 56.6457 22.5577H49.4817ZM51.6961 1.20055H56.6457C59.7936 1.20055 62.2467 2.10623 64.0052 3.91759C65.7853 5.72894 66.6754 8.25642 66.6754 11.5C66.6754 14.7436 65.7853 17.2711 64.0052 19.0824C62.2467 20.8938 59.7936 21.7994 56.6457 21.7994H51.6961V1.20055Z" fill="#BF9D6E"/>
</svg>
